<mxfile host="app.diagrams.net" agent="Mozilla/5.0 (Windows NT 10.0; Win64; x64) AppleWebKit/537.36 (KHTML, like Gecko) Chrome/138.0.0.0 Safari/537.36" version="28.0.7">
  <diagram name="Page-1" id="dcu_cmCz-5N0wSu2do1n">
    <mxGraphModel dx="1507" dy="722" grid="1" gridSize="10" guides="1" tooltips="1" connect="1" arrows="1" fold="1" page="1" pageScale="1" pageWidth="850" pageHeight="1100" math="0" shadow="0">
      <root>
        <mxCell id="0" />
        <mxCell id="1" parent="0" />
        <mxCell id="9CsvGDco87li5d4kIuOr-1" value="&lt;b&gt;&lt;u&gt;Decomposition flowchart of Computer&lt;/u&gt;&lt;/b&gt;" style="text;html=1;align=center;verticalAlign=middle;whiteSpace=wrap;rounded=0;" vertex="1" parent="1">
          <mxGeometry x="300" y="10" width="250" height="40" as="geometry" />
        </mxCell>
        <mxCell id="9CsvGDco87li5d4kIuOr-2" value="Start" style="ellipse;whiteSpace=wrap;html=1;fillColor=#4CF3E9;" vertex="1" parent="1">
          <mxGeometry x="360" y="50" width="120" height="50" as="geometry" />
        </mxCell>
        <mxCell id="9CsvGDco87li5d4kIuOr-3" value="Enter input(keyboard, mouse, etc.)" style="shape=parallelogram;perimeter=parallelogramPerimeter;whiteSpace=wrap;html=1;fixedSize=1;fillColor=#3EFFA6;" vertex="1" parent="1">
          <mxGeometry x="310" y="120" width="220" height="50" as="geometry" />
        </mxCell>
        <mxCell id="9CsvGDco87li5d4kIuOr-4" value="Is input valid?" style="rhombus;whiteSpace=wrap;html=1;fillColor=#D4E1F5;" vertex="1" parent="1">
          <mxGeometry x="380" y="190" width="80" height="80" as="geometry" />
        </mxCell>
        <mxCell id="9CsvGDco87li5d4kIuOr-5" value="Show error message" style="shape=parallelogram;perimeter=parallelogramPerimeter;whiteSpace=wrap;html=1;fixedSize=1;fillColor=#3EFFA6;" vertex="1" parent="1">
          <mxGeometry x="130" y="210" width="200" height="40" as="geometry" />
        </mxCell>
        <mxCell id="9CsvGDco87li5d4kIuOr-6" value="Send input to CPU" style="rounded=0;whiteSpace=wrap;html=1;fillColor=#FFD966;" vertex="1" parent="1">
          <mxGeometry x="345" y="310" width="150" height="30" as="geometry" />
        </mxCell>
        <mxCell id="9CsvGDco87li5d4kIuOr-7" value="Is data required from memory?" style="rhombus;whiteSpace=wrap;html=1;fillColor=#D4E1F5;" vertex="1" parent="1">
          <mxGeometry x="370" y="360" width="100" height="90" as="geometry" />
        </mxCell>
        <mxCell id="9CsvGDco87li5d4kIuOr-8" value="Access Memory (RAM/ROM)" style="rounded=0;whiteSpace=wrap;html=1;fillColor=#FFD966;" vertex="1" parent="1">
          <mxGeometry x="530" y="382.5" width="190" height="45" as="geometry" />
        </mxCell>
        <mxCell id="9CsvGDco87li5d4kIuOr-10" value="Skip to processing" style="rounded=0;whiteSpace=wrap;html=1;fillColor=#FFD966;" vertex="1" parent="1">
          <mxGeometry x="130" y="386.25" width="180" height="37.5" as="geometry" />
        </mxCell>
        <mxCell id="9CsvGDco87li5d4kIuOr-11" value="CPU processes data (CU + ALU)" style="rounded=0;whiteSpace=wrap;html=1;fillColor=#FFD966;" vertex="1" parent="1">
          <mxGeometry x="360" y="460" width="120" height="60" as="geometry" />
        </mxCell>
        <mxCell id="9CsvGDco87li5d4kIuOr-12" value="Display output in Monitor/ Printer" style="shape=parallelogram;perimeter=parallelogramPerimeter;whiteSpace=wrap;html=1;fixedSize=1;fillColor=#3EFFA6;" vertex="1" parent="1">
          <mxGeometry x="297.5" y="550" width="245" height="60" as="geometry" />
        </mxCell>
        <mxCell id="9CsvGDco87li5d4kIuOr-13" value="End" style="ellipse;whiteSpace=wrap;html=1;fillColor=#4CF3E9;" vertex="1" parent="1">
          <mxGeometry x="365" y="630" width="110" height="60" as="geometry" />
        </mxCell>
        <mxCell id="9CsvGDco87li5d4kIuOr-14" value="" style="endArrow=classic;html=1;rounded=0;entryX=0.5;entryY=0;entryDx=0;entryDy=0;exitX=0.5;exitY=1;exitDx=0;exitDy=0;" edge="1" parent="1" source="9CsvGDco87li5d4kIuOr-2" target="9CsvGDco87li5d4kIuOr-3">
          <mxGeometry width="50" height="50" relative="1" as="geometry">
            <mxPoint x="400" y="330" as="sourcePoint" />
            <mxPoint x="450" y="280" as="targetPoint" />
          </mxGeometry>
        </mxCell>
        <mxCell id="9CsvGDco87li5d4kIuOr-15" value="" style="endArrow=classic;html=1;rounded=0;entryX=0.5;entryY=0;entryDx=0;entryDy=0;exitX=0.5;exitY=1;exitDx=0;exitDy=0;" edge="1" parent="1" source="9CsvGDco87li5d4kIuOr-3" target="9CsvGDco87li5d4kIuOr-4">
          <mxGeometry width="50" height="50" relative="1" as="geometry">
            <mxPoint x="400" y="330" as="sourcePoint" />
            <mxPoint x="450" y="280" as="targetPoint" />
          </mxGeometry>
        </mxCell>
        <mxCell id="9CsvGDco87li5d4kIuOr-16" value="" style="endArrow=classic;html=1;rounded=0;exitX=0.5;exitY=1;exitDx=0;exitDy=0;entryX=0.5;entryY=0;entryDx=0;entryDy=0;" edge="1" parent="1" source="9CsvGDco87li5d4kIuOr-4" target="9CsvGDco87li5d4kIuOr-6">
          <mxGeometry relative="1" as="geometry">
            <mxPoint x="380" y="300" as="sourcePoint" />
            <mxPoint x="480" y="300" as="targetPoint" />
          </mxGeometry>
        </mxCell>
        <mxCell id="9CsvGDco87li5d4kIuOr-17" value="Yes" style="edgeLabel;resizable=0;html=1;;align=center;verticalAlign=middle;" connectable="0" vertex="1" parent="9CsvGDco87li5d4kIuOr-16">
          <mxGeometry relative="1" as="geometry" />
        </mxCell>
        <mxCell id="9CsvGDco87li5d4kIuOr-18" value="" style="endArrow=classic;html=1;rounded=0;exitX=0;exitY=0.5;exitDx=0;exitDy=0;" edge="1" parent="1" source="9CsvGDco87li5d4kIuOr-4" target="9CsvGDco87li5d4kIuOr-5">
          <mxGeometry relative="1" as="geometry">
            <mxPoint x="380" y="290" as="sourcePoint" />
            <mxPoint x="480" y="290" as="targetPoint" />
          </mxGeometry>
        </mxCell>
        <mxCell id="9CsvGDco87li5d4kIuOr-19" value="No" style="edgeLabel;resizable=0;html=1;;align=center;verticalAlign=middle;" connectable="0" vertex="1" parent="9CsvGDco87li5d4kIuOr-18">
          <mxGeometry relative="1" as="geometry" />
        </mxCell>
        <mxCell id="9CsvGDco87li5d4kIuOr-20" value="" style="endArrow=classic;html=1;rounded=0;entryX=0;entryY=0.5;entryDx=0;entryDy=0;exitX=0.5;exitY=0;exitDx=0;exitDy=0;" edge="1" parent="1" source="9CsvGDco87li5d4kIuOr-5" target="9CsvGDco87li5d4kIuOr-3">
          <mxGeometry width="50" height="50" relative="1" as="geometry">
            <mxPoint x="410" y="330" as="sourcePoint" />
            <mxPoint x="460" y="280" as="targetPoint" />
            <Array as="points">
              <mxPoint x="230" y="145" />
            </Array>
          </mxGeometry>
        </mxCell>
        <mxCell id="9CsvGDco87li5d4kIuOr-21" value="" style="endArrow=classic;html=1;rounded=0;entryX=0.5;entryY=0;entryDx=0;entryDy=0;exitX=0.5;exitY=1;exitDx=0;exitDy=0;" edge="1" parent="1" source="9CsvGDco87li5d4kIuOr-6" target="9CsvGDco87li5d4kIuOr-7">
          <mxGeometry width="50" height="50" relative="1" as="geometry">
            <mxPoint x="410" y="400" as="sourcePoint" />
            <mxPoint x="460" y="350" as="targetPoint" />
          </mxGeometry>
        </mxCell>
        <mxCell id="9CsvGDco87li5d4kIuOr-22" value="" style="endArrow=classic;html=1;rounded=0;entryX=0;entryY=0.5;entryDx=0;entryDy=0;exitX=1;exitY=0.5;exitDx=0;exitDy=0;" edge="1" parent="1" source="9CsvGDco87li5d4kIuOr-7" target="9CsvGDco87li5d4kIuOr-8">
          <mxGeometry relative="1" as="geometry">
            <mxPoint x="350" y="440" as="sourcePoint" />
            <mxPoint x="450" y="440" as="targetPoint" />
          </mxGeometry>
        </mxCell>
        <mxCell id="9CsvGDco87li5d4kIuOr-23" value="Yes" style="edgeLabel;resizable=0;html=1;;align=center;verticalAlign=middle;" connectable="0" vertex="1" parent="9CsvGDco87li5d4kIuOr-22">
          <mxGeometry relative="1" as="geometry" />
        </mxCell>
        <mxCell id="9CsvGDco87li5d4kIuOr-24" value="" style="endArrow=classic;html=1;rounded=0;entryX=1;entryY=0.5;entryDx=0;entryDy=0;exitX=0;exitY=0.5;exitDx=0;exitDy=0;" edge="1" parent="1" source="9CsvGDco87li5d4kIuOr-7" target="9CsvGDco87li5d4kIuOr-10">
          <mxGeometry relative="1" as="geometry">
            <mxPoint x="350" y="440" as="sourcePoint" />
            <mxPoint x="450" y="440" as="targetPoint" />
          </mxGeometry>
        </mxCell>
        <mxCell id="9CsvGDco87li5d4kIuOr-25" value="No" style="edgeLabel;resizable=0;html=1;;align=center;verticalAlign=middle;" connectable="0" vertex="1" parent="9CsvGDco87li5d4kIuOr-24">
          <mxGeometry relative="1" as="geometry" />
        </mxCell>
        <mxCell id="9CsvGDco87li5d4kIuOr-26" value="" style="endArrow=classic;html=1;rounded=0;entryX=0;entryY=0.5;entryDx=0;entryDy=0;exitX=0.5;exitY=1;exitDx=0;exitDy=0;" edge="1" parent="1" source="9CsvGDco87li5d4kIuOr-10" target="9CsvGDco87li5d4kIuOr-11">
          <mxGeometry width="50" height="50" relative="1" as="geometry">
            <mxPoint x="370" y="470" as="sourcePoint" />
            <mxPoint x="420" y="420" as="targetPoint" />
            <Array as="points">
              <mxPoint x="220" y="490" />
            </Array>
          </mxGeometry>
        </mxCell>
        <mxCell id="9CsvGDco87li5d4kIuOr-27" value="" style="endArrow=classic;html=1;rounded=0;entryX=1;entryY=0.5;entryDx=0;entryDy=0;exitX=0.5;exitY=1;exitDx=0;exitDy=0;" edge="1" parent="1" source="9CsvGDco87li5d4kIuOr-8" target="9CsvGDco87li5d4kIuOr-11">
          <mxGeometry width="50" height="50" relative="1" as="geometry">
            <mxPoint x="370" y="470" as="sourcePoint" />
            <mxPoint x="420" y="420" as="targetPoint" />
            <Array as="points">
              <mxPoint x="625" y="490" />
            </Array>
          </mxGeometry>
        </mxCell>
        <mxCell id="9CsvGDco87li5d4kIuOr-28" value="" style="endArrow=classic;html=1;rounded=0;entryX=0.5;entryY=0;entryDx=0;entryDy=0;exitX=0.5;exitY=1;exitDx=0;exitDy=0;" edge="1" parent="1" source="9CsvGDco87li5d4kIuOr-11" target="9CsvGDco87li5d4kIuOr-12">
          <mxGeometry width="50" height="50" relative="1" as="geometry">
            <mxPoint x="370" y="570" as="sourcePoint" />
            <mxPoint x="420" y="520" as="targetPoint" />
          </mxGeometry>
        </mxCell>
        <mxCell id="9CsvGDco87li5d4kIuOr-29" value="" style="endArrow=classic;html=1;rounded=0;entryX=0.5;entryY=0;entryDx=0;entryDy=0;exitX=0.5;exitY=1;exitDx=0;exitDy=0;" edge="1" parent="1" source="9CsvGDco87li5d4kIuOr-12" target="9CsvGDco87li5d4kIuOr-13">
          <mxGeometry width="50" height="50" relative="1" as="geometry">
            <mxPoint x="370" y="570" as="sourcePoint" />
            <mxPoint x="420" y="520" as="targetPoint" />
          </mxGeometry>
        </mxCell>
        <mxCell id="9CsvGDco87li5d4kIuOr-31" value="&lt;b&gt;By Aaradhaya Adhikari&lt;/b&gt;&lt;div&gt;&lt;b&gt;Class: 7&lt;/b&gt;&lt;/div&gt;" style="text;html=1;align=center;verticalAlign=middle;whiteSpace=wrap;rounded=0;" vertex="1" parent="1">
          <mxGeometry x="570" y="570" width="137.5" height="30" as="geometry" />
        </mxCell>
      </root>
    </mxGraphModel>
  </diagram>
</mxfile>
